<svg xmlns="http://www.w3.org/2000/svg" width="880" height="660" viewBox="0 0 880 660">
  <rect width="100%" height="100%" fill="#f6f7fb" rx="16" />
  <rect x="20" y="20" width="200" height="40" rx="6" fill="#ffffff" stroke="#e6e9f2" />
  <g transform="translate(24,32)">
    <text x="0" y="18" font-family="Inter, Arial, sans-serif" font-size="14" fill="#1f2937">Funil Email</text>
  </g>
  <rect x="20" y="80" width="840" height="520" rx="12" fill="#0f1724" />
  <g fill="#cbd5e1">
    <rect x="40" y="100" width="160" height="32" rx="6" />
    <rect x="40" y="144" width="240" height="24" rx="6" />

    <rect x="220" y="100" width="520" height="20" rx="6" />
    <rect x="220" y="132" width="460" height="20" rx="6" />
    <rect x="220" y="164" width="380" height="20" rx="6" />
  </g>

  <text x="40" y="60" font-family="Inter, Arial, sans-serif" font-size="18" fill="#0f1724" font-weight="700">Menu / Painel</text>

  <rect x="40" y="340" width="360" height="150" rx="8" fill="#091627" />
  <g fill="#9aa7b7">
    <rect x="56" y="364" width="86" height="14" rx="6" />
    <rect x="56" y="388" width="120" height="12" rx="6" />
  </g>
</svg>